<?xml version="1.0" encoding="utf-8" ?>
<svg baseProfile="tiny" height="400px" version="1.2" width="800px" xmlns="http://www.w3.org/2000/svg" xmlns:ev="http://www.w3.org/2001/xml-events" xmlns:xlink="http://www.w3.org/1999/xlink"><defs /><rect fill="white" height="400" width="800" x="0" y="0" /><line stroke="black" stroke-width="2" x1="50" x2="750" y1="200.0" y2="200.0" /><line stroke="black" stroke-width="2" x1="50" x2="50" y1="50.0" y2="350.0" /><path d="M 50,200.0 L 52,196.41037973654178 L 54,192.82538632386206 L 56,189.24964064894752 L 58,185.68775167888805 L 60,182.14431052013634 L 62,178.62388450078856 L 64,175.1310112835145 L 66,171.67019301672505 L 68,168.24589053151556 L 70,164.86251759186572 L 72,161.5244352055064 L 74,158.23594600278687 L 76,155.00128869078787 L 78,151.82463258982847 L 80,148.7100722594094 L 82,145.66162222051943 L 84,142.6832117811078 L 86,139.7786799713918 L 88,136.95177059552861 L 90,134.20612740602874 L 92,131.54528940713112 L 94,128.9726862931943 L 96,126.49163402798233 L 98,124.10533057054445 L 100,121.81685175319701 L 102,119.62914731692112 L 104,117.54503710928593 L 106,115.56720744979849 L 108,113.69820766736498 L 110,111.9404468143262 L 112,110.29619056130315 L 114,108.76755827685457 L 116,107.35652029571125 L 118,106.06489537910765 L 120,104.89434837048465 L 122,103.84638804958512 L 124,102.92236518770818 L 126,102.12347080662887 L 128,101.45073464342732 L 130,100.90502382320653 L 132,100.48704174140887 L 134,100.19732715717285 L 136,100.03625349889789 L 138,100.00402838291289 L 140,100.10069334586854 L 142,100.32612379119854 L 144,100.6800291497187 L 146,101.16195325415693 L 148,101.77127492713115 L 150,102.50720878181764 L 152,103.3688062342776 L 154,104.35495672613685 L 156,105.46438915604311 L 158,106.69567351805557 L 160,108.04722274485493 L 162,109.51729475339805 L 164,111.10399469038067 L 166,112.80527737461374 L 168,114.61894993316525 L 170,116.54267462786973 L 172,118.57397186856214 L 174,120.71022340915246 L 176,122.94867572242107 L 178,125.28644354918502 L 180,127.72051361726085 L 182,130.24774852542976 L 184,132.8648907873996 L 186,135.56856703055058 L 188,138.355292344053 L 190,141.22147477075268 L 192,144.16341993703372 L 194,147.17733581469156 L 196,150.2593376086778 L 198,153.40545276441753 L 200,156.61162608824418 L 202,159.87372497435254 L 204,163.18754473153217 L 206,166.54881400281545 L 208,169.95320027105478 L 210,173.39631544333247 L 212,176.8737215070048 L 214,180.38093625009046 L 216,183.91343903863014 L 218,187.46667664356954 L 220,191.03606910965664 L 222,194.61701565878718 L 224,198.2049006201903 L 226,201.79509937980973 L 228,205.3829843412128 L 230,208.9639308903433 L 232,212.53332335643043 L 234,216.08656096136983 L 236,219.61906374990951 L 238,223.1262784929952 L 240,226.60368455666745 L 242,230.0467997289452 L 244,233.45118599718452 L 246,236.81245526846783 L 248,240.12627502564743 L 250,243.3883739117558 L 252,246.5945472355825 L 254,249.7406623913222 L 256,252.82266418530838 L 258,255.83658006296625 L 260,258.7785252292473 L 262,261.644707655947 L 264,264.4314329694494 L 266,267.13510921260036 L 268,269.75225147457024 L 270,272.27948638273915 L 272,274.71355645081496 L 274,277.05132427757894 L 276,279.2897765908475 L 278,281.4260281314378 L 280,283.45732537213024 L 282,285.3810500668347 L 284,287.19472262538625 L 286,288.8960053096193 L 288,290.482705246602 L 290,291.95277725514507 L 292,293.30432648194443 L 294,294.5356108439569 L 296,295.64504327386317 L 298,296.6311937657224 L 300,297.49279121818233 L 302,298.2287250728689 L 304,298.8380467458431 L 306,299.31997085028127 L 308,299.67387620880146 L 310,299.89930665413146 L 312,299.9959716170871 L 314,299.9637465011021 L 316,299.8026728428272 L 318,299.51295825859114 L 320,299.09497617679347 L 322,298.5492653565727 L 324,297.87652919337114 L 326,297.0776348122918 L 328,296.15361195041487 L 330,295.10565162951536 L 332,293.93510462089233 L 334,292.6434797042888 L 336,291.2324417231454 L 338,289.7038094386969 L 340,288.0595531856738 L 342,286.30179233263505 L 344,284.43279255020155 L 346,282.45496289071406 L 348,280.3708526830789 L 350,278.183148246803 L 352,275.8946694294556 L 354,273.5083659720177 L 356,271.02731370680567 L 358,268.4547105928689 L 360,265.7938725939713 L 362,263.0482294044714 L 364,260.2213200286082 L 366,257.31678821889227 L 368,254.3383777794806 L 370,251.28992774059063 L 372,248.17536741017153 L 374,244.9987113092121 L 376,241.76405399721315 L 378,238.47556479449364 L 380,235.1374824081343 L 382,231.75410946848444 L 384,228.32980698327492 L 386,224.86898871648555 L 388,221.3761154992115 L 390,217.85568947986368 L 392,214.31224832111204 L 394,210.75035935105248 L 396,207.174613676138 L 398,203.58962026345816 L 400,200.00000000000003 L 402,196.41037973654178 L 404,192.82538632386215 L 406,189.24964064894758 L 408,185.687751678888 L 410,182.14431052013646 L 412,178.62388450078856 L 414,175.1310112835145 L 416,171.67019301672502 L 418,168.2458905315156 L 420,164.86251759186575 L 422,161.5244352055064 L 424,158.23594600278696 L 426,155.00128869078793 L 428,151.82463258982844 L 430,148.7100722594095 L 432,145.66162222051943 L 434,142.68321178110776 L 436,139.77867997139185 L 438,136.95177059552867 L 440,134.20612740602877 L 442,131.54528940713107 L 444,128.97268629319433 L 446,126.4916340279823 L 448,124.10533057054441 L 450,121.81685175319704 L 452,119.62914731692113 L 454,117.54503710928591 L 456,115.56720744979853 L 458,113.698207667365 L 460,111.94044681432621 L 462,110.29619056130318 L 464,108.76755827685459 L 466,107.35652029571125 L 468,106.06489537910764 L 470,104.89434837048465 L 472,103.84638804958512 L 474,102.92236518770818 L 476,102.12347080662887 L 478,101.45073464342734 L 480,100.90502382320652 L 482,100.48704174140887 L 484,100.19732715717285 L 486,100.03625349889789 L 488,100.00402838291289 L 490,100.10069334586854 L 492,100.32612379119854 L 494,100.6800291497187 L 496,101.16195325415693 L 498,101.77127492713115 L 500,102.50720878181762 L 502,103.36880623427757 L 504,104.35495672613685 L 506,105.4643891560431 L 508,106.69567351805553 L 510,108.04722274485492 L 512,109.51729475339808 L 514,111.10399469038059 L 516,112.80527737461374 L 518,114.6189499331653 L 520,116.54267462786972 L 522,118.57397186856208 L 524,120.71022340915248 L 526,122.94867572242114 L 528,125.28644354918495 L 530,127.72051361726082 L 532,130.2477485254298 L 534,132.8648907873996 L 536,135.56856703055053 L 538,138.35529234405303 L 540,141.22147477075265 L 542,144.16341993703367 L 544,147.17733581469156 L 546,150.25933760867775 L 548,153.4054527644174 L 550,156.61162608824415 L 552,159.87372497435265 L 554,163.1875447315322 L 556,166.5488140028154 L 558,169.95320027105484 L 560,173.39631544333247 L 562,176.8737215070047 L 564,180.38093625009049 L 566,183.9134390386301 L 568,187.4666766435696 L 570,191.0360691096566 L 572,194.61701565878707 L 574,198.20490062019027 L 576,201.79509937980964 L 578,205.38298434121285 L 580,208.9639308903433 L 582,212.53332335643032 L 584,216.08656096136986 L 586,219.61906374990946 L 588,223.12627849299525 L 590,226.60368455666747 L 592,230.04679972894508 L 594,233.45118599718455 L 596,236.81245526846772 L 598,240.1262750256473 L 600,243.38837391175576 L 602,246.59454723558255 L 604,249.7406623913222 L 606,252.82266418530838 L 608,255.83658006296628 L 610,258.7785252292473 L 612,261.6447076559469 L 614,264.4314329694494 L 616,267.13510921260036 L 618,269.75225147457013 L 620,272.27948638273915 L 622,274.713556450815 L 624,277.05132427757883 L 626,279.2897765908475 L 628,281.4260281314379 L 630,283.45732537213024 L 632,285.38105006683463 L 634,287.19472262538625 L 636,288.89600530961934 L 638,290.4827052466019 L 640,291.95277725514507 L 642,293.30432648194443 L 644,294.5356108439569 L 646,295.64504327386317 L 648,296.6311937657224 L 650,297.49279121818233 L 652,298.2287250728689 L 654,298.8380467458431 L 656,299.3199708502813 L 658,299.67387620880146 L 660,299.89930665413146 L 662,299.9959716170871 L 664,299.9637465011021 L 666,299.8026728428272 L 668,299.51295825859114 L 670,299.09497617679347 L 672,298.5492653565727 L 674,297.87652919337114 L 676,297.0776348122918 L 678,296.15361195041487 L 680,295.10565162951536 L 682,293.9351046208924 L 684,292.6434797042888 L 686,291.2324417231455 L 688,289.70380943869685 L 690,288.05955318567385 L 692,286.3017923326351 L 694,284.4327925502015 L 696,282.4549628907141 L 698,280.37085268307885 L 700,278.183148246803 L 702,275.89466942945563 L 704,273.5083659720177 L 706,271.0273137068058 L 708,268.454710592869 L 710,265.7938725939713 L 712,263.04822940447133 L 714,260.2213200286082 L 716,257.31678821889227 L 718,254.33837777948054 L 720,251.28992774059066 L 722,248.17536741017165 L 724,244.99871130921213 L 726,241.76405399721318 L 728,238.47556479449375 L 730,235.1374824081343 L 732,231.7541094684844 L 734,228.32980698327512 L 736,224.86898871648555 L 738,221.37611549921144 L 740,217.8556894798637 L 742,214.31224832111207 L 744,210.7503593510525 L 746,207.17461367613782 L 748,203.5896202634584 L 750,200.00000000000006" fill="none" stroke="blue" stroke-width="2" /><text fill="black" font-size="16" x="760" y="220.0">X</text><text fill="black" font-size="16" x="30" y="50.0">Y</text><text fill="blue" font-size="18" font-weight="bold" x="300.0" y="30">Sine Wave: y = sin(x)</text></svg>